<svg xmlns="http://www.w3.org/2000/svg" xmlns:xlink="http://www.w3.org/1999/xlink" width="180" zoomAndPan="magnify" viewBox="0 0 135 135.000003" height="180" preserveAspectRatio="xMidYMid meet" version="1.0"><defs><clipPath id="80d4751b38"><path d="M 16.953125 27.265625 L 118.203125 27.265625 L 118.203125 100.226562 L 16.953125 100.226562 Z M 16.953125 27.265625 " clip-rule="nonzero"/></clipPath><clipPath id="1742409a3b"><path d="M 32 90 L 43 90 L 43 100.226562 L 32 100.226562 Z M 32 90 " clip-rule="nonzero"/></clipPath><clipPath id="8d41b68343"><path d="M 44 90 L 55 90 L 55 100.226562 L 44 100.226562 Z M 44 90 " clip-rule="nonzero"/></clipPath><clipPath id="4a9b3aa696"><path d="M 56 90 L 67 90 L 67 100.226562 L 56 100.226562 Z M 56 90 " clip-rule="nonzero"/></clipPath><clipPath id="e79b6d57d4"><path d="M 68 90 L 79 90 L 79 100.226562 L 68 100.226562 Z M 68 90 " clip-rule="nonzero"/></clipPath><clipPath id="a163b81f97"><path d="M 80 90 L 91 90 L 91 100.226562 L 80 100.226562 Z M 80 90 " clip-rule="nonzero"/></clipPath><clipPath id="77df7c4deb"><path d="M 92 90 L 103 90 L 103 100.226562 L 92 100.226562 Z M 92 90 " clip-rule="nonzero"/></clipPath></defs><g clip-path="url(#80d4751b38)"><path fill="#ffffff" d="M 76.949219 44.136719 L 72.714844 44.136719 L 72.714844 40.835938 L 76.949219 40.835938 Z M 76.949219 47.996094 L 72.714844 47.996094 L 72.714844 44.902344 L 76.949219 44.902344 Z M 71.949219 44.136719 L 67.882812 44.136719 L 67.882812 40.835938 L 71.949219 40.835938 Z M 71.949219 47.996094 L 67.882812 47.996094 L 67.882812 44.902344 L 71.949219 44.902344 Z M 67.117188 44.136719 L 63.050781 44.136719 L 63.050781 40.835938 L 67.117188 40.835938 Z M 67.117188 47.996094 L 63.050781 47.996094 L 63.050781 44.902344 L 67.117188 44.902344 Z M 62.28125 44.136719 L 58.023438 44.136719 L 58.023438 40.835938 L 62.28125 40.835938 Z M 62.28125 47.996094 L 58.023438 47.996094 L 58.023438 44.902344 L 62.28125 44.902344 Z M 67.5 27.265625 L 16.964844 51.800781 L 16.964844 100.203125 L 30.214844 100.203125 L 30.214844 52.941406 L 104.785156 52.941406 L 104.785156 100.203125 L 118.035156 100.203125 L 118.035156 51.800781 L 67.5 27.265625 " fill-opacity="1" fill-rule="nonzero"/></g><path fill="#ffffff" d="M 32.578125 64.757812 L 42.472656 64.757812 L 42.472656 54.863281 L 32.578125 54.863281 L 32.578125 64.757812 " fill-opacity="1" fill-rule="nonzero"/><path fill="#ffffff" d="M 44.566406 64.757812 L 54.464844 64.757812 L 54.464844 54.863281 L 44.566406 54.863281 L 44.566406 64.757812 " fill-opacity="1" fill-rule="nonzero"/><path fill="#ffffff" d="M 32.578125 76.574219 L 42.472656 76.574219 L 42.472656 66.675781 L 32.578125 66.675781 L 32.578125 76.574219 " fill-opacity="1" fill-rule="nonzero"/><path fill="#ffffff" d="M 44.566406 76.574219 L 54.464844 76.574219 L 54.464844 66.675781 L 44.566406 66.675781 L 44.566406 76.574219 " fill-opacity="1" fill-rule="nonzero"/><path fill="#ffffff" d="M 56.558594 76.574219 L 66.453125 76.574219 L 66.453125 66.675781 L 56.558594 66.675781 L 56.558594 76.574219 " fill-opacity="1" fill-rule="nonzero"/><path fill="#ffffff" d="M 32.578125 88.386719 L 42.472656 88.386719 L 42.472656 78.492188 L 32.578125 78.492188 L 32.578125 88.386719 " fill-opacity="1" fill-rule="nonzero"/><path fill="#ffffff" d="M 44.566406 88.386719 L 54.464844 88.386719 L 54.464844 78.492188 L 44.566406 78.492188 L 44.566406 88.386719 " fill-opacity="1" fill-rule="nonzero"/><path fill="#ffffff" d="M 56.558594 88.386719 L 66.453125 88.386719 L 66.453125 78.492188 L 56.558594 78.492188 L 56.558594 88.386719 " fill-opacity="1" fill-rule="nonzero"/><path fill="#ffffff" d="M 68.546875 88.386719 L 78.441406 88.386719 L 78.441406 78.492188 L 68.546875 78.492188 L 68.546875 88.386719 " fill-opacity="1" fill-rule="nonzero"/><g clip-path="url(#1742409a3b)"><path fill="#ffffff" d="M 32.578125 100.203125 L 42.472656 100.203125 L 42.472656 90.308594 L 32.578125 90.308594 L 32.578125 100.203125 " fill-opacity="1" fill-rule="nonzero"/></g><g clip-path="url(#8d41b68343)"><path fill="#ffffff" d="M 44.566406 100.203125 L 54.464844 100.203125 L 54.464844 90.308594 L 44.566406 90.308594 L 44.566406 100.203125 " fill-opacity="1" fill-rule="nonzero"/></g><g clip-path="url(#4a9b3aa696)"><path fill="#ffffff" d="M 56.558594 100.203125 L 66.453125 100.203125 L 66.453125 90.308594 L 56.558594 90.308594 L 56.558594 100.203125 " fill-opacity="1" fill-rule="nonzero"/></g><g clip-path="url(#e79b6d57d4)"><path fill="#ffffff" d="M 68.546875 100.203125 L 78.441406 100.203125 L 78.441406 90.308594 L 68.546875 90.308594 L 68.546875 100.203125 " fill-opacity="1" fill-rule="nonzero"/></g><g clip-path="url(#a163b81f97)"><path fill="#ffffff" d="M 80.535156 100.203125 L 90.429688 100.203125 L 90.429688 90.308594 L 80.535156 90.308594 L 80.535156 100.203125 " fill-opacity="1" fill-rule="nonzero"/></g><g clip-path="url(#77df7c4deb)"><path fill="#ffffff" d="M 92.523438 90.308594 L 92.523438 100.203125 L 102.421875 100.203125 L 102.421875 90.308594 L 92.523438 90.308594 " fill-opacity="1" fill-rule="nonzero"/></g></svg>